<svg width="64" height="64" viewBox="0 0 64 64" fill="none" xmlns="http://www.w3.org/2000/svg">
  <defs>
    <linearGradient id="markGradient" x1="12" y1="8" x2="52" y2="56" gradientUnits="userSpaceOnUse">
      <stop stop-color="#8EE3FF"/>
      <stop offset="0.55" stop-color="#35C8FF"/>
      <stop offset="1" stop-color="#199ACA"/>
    </linearGradient>
    <linearGradient id="surfaceGradient" x1="9" y1="7" x2="55" y2="58" gradientUnits="userSpaceOnUse">
      <stop stop-color="#1A2635"/>
      <stop offset="1" stop-color="#0E141E"/>
    </linearGradient>
    <filter id="markGlow" x="9" y="9" width="46" height="46" filterUnits="userSpaceOnUse" color-interpolation-filters="sRGB">
      <feGaussianBlur stdDeviation="1.8" result="blur"/>
      <feComposite in="SourceGraphic" in2="blur" operator="over"/>
    </filter>
  </defs>

  <rect x="1" y="1" width="62" height="62" rx="19" fill="url(#surfaceGradient)"/>
  <rect x="1.5" y="1.5" width="61" height="61" rx="18.5" stroke="white" stroke-opacity="0.12"/>
  <path d="M17 46V18H30.5C38 18 42.5 21.8 42.5 28C42.5 34.2 38 38 30.5 38H17" stroke="url(#markGradient)" stroke-width="4.2" stroke-linecap="round" stroke-linejoin="round" filter="url(#markGlow)"/>
  <path d="M31 38L43.5 46M29.5 18H38C44.5 18 48.5 21.5 48.5 27C48.5 31.6 45.7 34.8 40.8 36" stroke="url(#markGradient)" stroke-width="4.2" stroke-linecap="round" stroke-linejoin="round"/>
  <circle cx="49" cy="46" r="2.2" fill="#8EE3FF"/>
</svg>
